<?xml version="1.0" encoding="utf-8"?>
<!-- Generator: Adobe Illustrator 16.0.0, SVG Export Plug-In . SVG Version: 6.00 Build 0)  -->
<!DOCTYPE svg PUBLIC "-//W3C//DTD SVG 1.1//EN" "http://www.w3.org/Graphics/SVG/1.1/DTD/svg11.dtd">
<svg version="1.1" id="Layer_1" xmlns="http://www.w3.org/2000/svg" xmlns:xlink="http://www.w3.org/1999/xlink" x="0px" y="0px"
	 width="418.905px" height="512px" viewBox="0 0 418.905 512" enable-background="new 0 0 418.905 512" xml:space="preserve">
<g id="icomoon-ignore">
</g>
<path fill="#FFFFFF" d="M350.201,272.046c-0.647-64.841,52.879-95.938,55.271-97.483c-30.075-44.01-76.925-50.039-93.621-50.736
	c-39.87-4.037-77.797,23.474-98.032,23.474c-20.184,0-51.409-22.877-84.476-22.276c-43.458,0.646-83.529,25.269-105.906,64.19
	c-45.152,78.35-11.563,194.42,32.445,257.963c21.504,31.103,47.146,66.038,80.813,64.79c32.421-1.294,44.681-20.979,83.878-20.979
	c39.196,0,50.214,20.979,84.524,20.335c34.888-0.648,56.991-31.699,78.347-62.898c24.694-36.084,34.862-71.019,35.462-72.812
	C418.131,375.26,350.875,349.495,350.201,272.046z M285.733,81.761c17.869-21.679,29.93-51.756,26.64-81.761
	c-25.739,1.048-56.938,17.145-75.405,38.775c-16.57,19.188-31.074,49.813-27.187,79.218
	C238.515,120.235,267.845,103.391,285.733,81.761z"/>
</svg>
