<?xml version="1.0" encoding="UTF-8" standalone="no"?>
<svg width="43px" height="43px" viewBox="0 0 43 43" version="1.1" xmlns="http://www.w3.org/2000/svg" xmlns:xlink="http://www.w3.org/1999/xlink">
    <!-- Generator: Sketch 40.1 (33804) - http://www.bohemiancoding.com/sketch -->
    <title>noun_534862_cc (1)</title>
    <desc>Created with Sketch.</desc>
    <defs></defs>
    <g id="Page-1" stroke="none" stroke-width="1" fill="none" fill-rule="evenodd">
        <g id="grow_landingpg" transform="translate(-277.000000, -2676.000000)" fill="#F6A623">
            <g id="noun_534862_cc-(1)" transform="translate(277.000000, 2676.000000)">
                <g id="Group">
                    <g>
                        <path d="M21.5,43 C9.64454167,43 0,33.3554583 0,21.5 C0,9.64454167 9.64454167,0 21.5,0 C33.3554583,0 43,9.64454167 43,21.5 C43,33.3554583 33.3554583,43 21.5,43 L21.5,43 Z M21.5,3.58333333 C11.62075,3.58333333 3.58333333,11.62075 3.58333333,21.5 C3.58333333,31.37925 11.62075,39.4166667 21.5,39.4166667 C31.37925,39.4166667 39.4166667,31.37925 39.4166667,21.5 C39.4166667,11.62075 31.37925,3.58333333 21.5,3.58333333 L21.5,3.58333333 Z" id="Shape"></path>
                        <ellipse id="Oval" cx="15.2291667" cy="17.0208333" rx="2.6875" ry="2.6875"></ellipse>
                        <ellipse id="Oval" cx="27.7708333" cy="17.0208333" rx="2.6875" ry="2.6875"></ellipse>
                        <path d="M21.5,34.0416667 C17.0477083,34.0416667 12.88925,31.6390417 10.6496667,27.772625 C10.153375,26.9162083 10.4454167,25.8197083 11.3018333,25.3252083 C12.1600417,24.8289167 13.25475,25.12275 13.7510417,25.977375 C15.351,28.7419167 18.3215833,30.4583333 21.5,30.4583333 C24.6802083,30.4583333 27.6507917,28.7419167 29.2489583,25.977375 C29.7434583,25.1209583 30.8345833,24.8235417 31.696375,25.3252083 C32.5527917,25.8197083 32.846625,26.9162083 32.3485417,27.772625 C30.1125417,31.6390417 25.9540833,34.0416667 21.5,34.0416667 L21.5,34.0416667 Z" id="Shape"></path>
                    </g>
                </g>
            </g>
        </g>
    </g>
</svg>