<?xml version="1.0" encoding="UTF-8" standalone="no"?>
<svg width="30px" height="35px" viewBox="0 0 30 35" version="1.1" xmlns="http://www.w3.org/2000/svg" xmlns:xlink="http://www.w3.org/1999/xlink">
    <!-- Generator: Sketch 40.1 (33804) - http://www.bohemiancoding.com/sketch -->
    <title>noun_546457_cc</title>
    <desc>Created with Sketch.</desc>
    <defs></defs>
    <g id="Page-1" stroke="none" stroke-width="1" fill="none" fill-rule="evenodd" opacity="0.9">
        <g id="grow_landingpg" transform="translate(-1121.000000, -1760.000000)" fill="#F6A623">
            <g id="noun_546457_cc" transform="translate(1121.000000, 1760.000000)">
                <g id="icon24pt_protect_gray">
                    <g id="Group">
                        <g id="Shape">
                            <path d="M13.8227412,0.523380757 C14.305476,0.191436107 15.694524,0.191436107 16.1772588,0.523380757 C20.4153904,3.43219459 24.2400459,4.93854461 28.2714394,5.19826012 C29.4601837,5.25020323 29.9770291,5.82157738 29.9770291,7.01626877 C29.9770291,7.77039229 30.0287136,15.6907671 29.9770291,18.5476379 C29.9770291,19.5345569 29.8736601,20.573419 29.6152374,21.6122809 C29.0467075,24.0016638 27.8062786,26.2352173 25.7388973,28.3129414 C23.1029862,30.9620397 15.2469372,34.7019433 14.9598009,34.7019433 C14.7530628,34.7019433 6.89701378,30.9620397 4.2611026,28.3129414 C2.19372129,26.2352173 0.953292495,24.0016638 0.38476263,21.6122809 C0.126339975,20.573419 0.0229709105,19.5345569 0.0229709105,18.5476379 C-0.0287136294,15.6907671 0.0229709105,7.77039229 0.0229709105,7.01626877 C0.0229709105,5.82157738 0.539816235,5.25020323 1.72856049,5.19826012 C5.75995405,4.93854461 9.58460949,3.43219459 13.8227412,0.523380757 L13.8227412,0.523380757 L13.8227412,0.523380757 Z M13.9689973,4.00811244 C10.9439709,5.89391155 8.04352422,7.12652849 5.07524802,7.75085771 C4.01500821,7.97386211 3.01875151,8.06841068 3.01875151,8.06841068 C3.01875151,8.06841068 3.00372874,17.4570039 3.02297091,18.5476379 C3.02297091,19.3632829 3.11222679,20.1506707 3.30361153,20.920685 C3.75542584,22.8195427 4.74909145,24.5545481 6.38993326,26.2035988 C7.285189,27.1033334 15,31.3846181 15,31.3846181 C15,31.3846181 22.7125666,27.105589 23.6100667,26.2035988 C25.2509085,24.5545481 26.2445742,22.8195427 26.7036033,20.8910361 C26.8877731,20.1506707 26.9770291,19.3632829 27,18.4936005 C26.9962713,17.4570039 27,8.08661938 27,8.08661938 C27,8.08661938 26.317692,8.00469814 25.9934181,7.95288442 C22.6833621,7.42399099 19.4596321,6.13917644 16.0763988,4.03632367 C15.5468284,3.70716855 15.0354879,3.26570719 15.0354879,3.26570719 C15.0354879,3.26570719 14.4830236,3.68766889 13.9689973,4.00811244 L13.9689973,4.00811244 L13.9689973,4.00811244 Z M12.7908918,22.6152046 C13.4059675,23.2289882 14.4032023,23.2289882 15.0182782,22.6152046 L22.0065853,15.6415787 C22.6216611,15.0277951 22.6216611,14.0326553 22.0065853,13.4188718 C21.3915096,12.8050882 20.3942748,12.8050882 19.7791989,13.4188718 L13.9210509,19.2975755 L11.4772796,16.8589381 C10.8622038,16.2451545 9.86496899,16.2451545 9.24989325,16.8589381 C8.63481748,17.4727217 8.63481748,18.4678614 9.24989325,19.081645 L12.7908918,22.6152046 L12.7908918,22.6152046 L12.7908918,22.6152046 Z"></path>
                        </g>
                    </g>
                </g>
            </g>
        </g>
    </g>
</svg>