<?xml version="1.0" encoding="UTF-8" standalone="no"?>
<svg width="53px" height="46px" viewBox="0 0 53 46" version="1.1" xmlns="http://www.w3.org/2000/svg" xmlns:xlink="http://www.w3.org/1999/xlink">
    <!-- Generator: Sketch 40.1 (33804) - http://www.bohemiancoding.com/sketch -->
    <title>noun_405183_cc</title>
    <desc>Created with Sketch.</desc>
    <defs></defs>
    <g id="Page-1" stroke="none" stroke-width="1" fill="none" fill-rule="evenodd">
        <g id="grow_landingpg" transform="translate(-272.000000, -2881.000000)" fill="#F6A623">
            <g id="noun_405183_cc" transform="translate(272.000000, 2881.000000)">
                <g id="Group">
                    <path d="M26.2850571,4.46775 C18.6806,4.46775 12.4942571,10.4835278 12.4942571,17.87675 C12.4942571,25.2706111 18.6819143,31.2844722 26.2837429,31.2844722 C33.8882,31.2844722 40.0758571,25.2699722 40.0758571,17.87675 C40.0758571,10.4835278 33.8882,4.46775 26.2850571,4.46775 L26.2850571,4.46775 Z M26.2850571,29.3678056 C19.7675143,29.3678056 14.4643714,24.2138889 14.4656857,17.87675 C14.4656857,11.54025 19.7662,6.38441667 26.2850571,6.38441667 C32.8026,6.38441667 38.1044286,11.5396111 38.1044286,17.87675 C38.1044286,24.2126111 32.8026,29.3684444 26.2850571,29.3678056 L26.2850571,29.3678056 Z M47.7164571,0.386527778 L4.85168571,0.387166667 C2.254,0.387166667 0.141285714,2.44183333 0.141285714,4.96736111 L0.141285714,30.7855 C0.141285714,33.3116667 2.254,35.3656944 4.85168571,35.3656944 L14.4919714,35.3656944 L14.4919714,33.4490278 L4.85168571,33.4490278 C3.3396,33.4490278 2.11271429,32.2543056 2.11271429,30.7855 L2.11271429,4.96736111 C2.11271429,3.49855556 3.3396,2.30319444 4.85168571,2.30319444 L47.7164571,2.30319444 C49.2285429,2.30319444 50.4567429,3.49855556 50.4567429,4.96736111 L50.4567429,30.7855 C50.4567429,32.2543056 49.2285429,33.4483889 47.7177714,33.4490278 L38.0774857,33.4490278 L38.0774857,35.3656944 L47.7164571,35.3656944 C50.3141429,35.3656944 52.4294857,33.3110278 52.4294857,30.7855 L52.4294857,4.96736111 C52.4281714,2.44183333 50.3141429,0.386527778 47.7164571,0.386527778 L47.7164571,0.386527778 Z M26.5196571,12.6838611 C27.1025429,12.6838611 27.5684571,12.8863889 27.9134571,13.2920833 C28.2610857,13.6977778 28.4345714,14.3091944 28.4345714,15.1276111 L31.4738571,15.1276111 C31.4738571,13.7980833 31.1236,12.7170833 30.4198,11.8814167 C29.7206,11.0425556 28.7486857,10.5429444 27.5027429,10.373 L27.5027429,8.1535 L25.8198,8.1535 L25.8198,10.3416944 C24.5646571,10.4637222 23.5585714,10.8943333 22.7943143,11.6296944 C22.0418857,12.3663333 21.6581143,13.3157222 21.6581143,14.4650833 C21.6594286,15.1333611 21.7685143,15.7077222 21.9893143,16.1932778 C22.2101143,16.6775556 22.5209429,17.0985833 22.9145714,17.4563611 C23.3114857,17.8160556 23.7859429,18.1355 24.3392571,18.4070278 C24.8938857,18.6843056 25.5523429,18.9603056 26.3172571,19.2407778 C27.0821714,19.52125 27.6223429,19.8253611 27.9469714,20.1595 C28.2617429,20.4910833 28.4260286,20.9351111 28.4260286,21.4941389 C28.4260286,22.0327222 28.2479429,22.4601389 27.8911143,22.7776667 C27.5329714,23.0945556 27.0493143,23.253 26.4276571,23.253 C25.6857429,23.2536389 25.1146857,23.0364167 24.7164571,22.6006944 C24.3188857,22.1688056 24.1237143,21.5490833 24.1237143,20.7345 L21.0844286,20.7351389 C21.0844286,22.1330278 21.4787143,23.2517222 22.2679429,24.0950556 C23.0571714,24.9358333 24.1710286,25.438 25.6075429,25.5823889 L25.6088571,27.6070278 L27.2799714,27.6063889 L27.2799714,25.5715278 C28.5837429,25.4418333 29.6069143,25.0150556 30.3501429,24.2924722 C31.0933714,23.5698889 31.4653143,22.6288056 31.4653143,21.4698611 C31.4666286,20.8501389 31.3680571,20.3070833 31.1702571,19.8375 C30.9750857,19.37175 30.6912,18.9507222 30.3205714,18.5923056 C29.9506,18.2281389 29.4925714,17.9003889 28.9510857,17.6109722 C28.4168286,17.3209167 27.7242,17.0116944 26.8843714,16.6858611 C26.0465143,16.35875 25.4741429,16.0380278 25.1646286,15.7249722 C24.8564286,15.4112778 24.7026571,14.9934444 24.7026571,14.4778611 C24.7026571,13.9188333 24.8603714,13.4799167 25.1777714,13.1636667 C25.4997714,12.8416667 25.9446571,12.6838611 26.5196571,12.6838611 L26.5196571,12.6838611 Z M19.1708286,41.3980833 L21.1422571,41.3980833 L21.1422571,33.4483889 L19.1708286,33.4483889 L19.1708286,41.3980833 L19.1708286,41.3980833 Z M31.4239143,41.3980833 L33.3953429,41.3980833 L33.3953429,33.4483889 L31.4239143,33.4483889 L31.4239143,41.3980833 L31.4239143,41.3980833 Z M25.2993429,45.6134722 L27.2707714,45.6134722 L27.2707714,33.4490278 L25.2993429,33.4490278 L25.2993429,45.6134722 L25.2993429,45.6134722 Z" id="Shape"></path>
                </g>
            </g>
        </g>
    </g>
</svg>