<?xml version="1.0" encoding="UTF-8" standalone="no"?>
<svg width="32px" height="45px" viewBox="0 0 32 45" version="1.1" xmlns="http://www.w3.org/2000/svg" xmlns:xlink="http://www.w3.org/1999/xlink">
    <!-- Generator: Sketch 40.1 (33804) - http://www.bohemiancoding.com/sketch -->
    <title>noun_23986_cc</title>
    <desc>Created with Sketch.</desc>
    <defs></defs>
    <g id="Page-1" stroke="none" stroke-width="1" fill="none" fill-rule="evenodd">
        <g id="grow_landingpg" transform="translate(-1123.000000, -1908.000000)" stroke-width="1.4173" stroke="#F6A623" fill="#F6A623">
            <g id="noun_23986_cc" transform="translate(1124.000000, 1909.000000)">
                <g id="Group">
                    <path d="M26.2410072,43 L3.75899281,43 C1.68615108,43 2.66189848e-13,41.3139051 2.66189848e-13,39.2417747 L2.66189848e-13,19.7582253 C2.66189848e-13,17.6860949 1.68615108,16 3.75899281,16 L26.2410072,16 C28.3138489,16 30,17.6860949 30,19.7582253 L30,39.242417 C29.9993577,41.3139051 28.3132066,43 26.2410072,43 L26.2410072,43 Z M3.68255728,17 C2.20288248,17 1,18.2043125 1,19.6849503 L1,39.3150497 C1,40.7956875 2.20288248,42 3.68255728,42 L26.3174427,42 C27.7971175,42 29,40.7956875 29,39.3150497 L29,19.6855974 C29,18.2049596 27.7971175,17.0006471 26.3174427,17.0006471 L3.68255728,17.0006471 L3.68255728,17 Z" id="Shape"></path>
                    <path d="M17.8419183,37 L13.1614121,37 C12.2388988,37 11.4882327,36.2905405 11.4882327,35.4164865 C11.4882327,35.3691892 11.4948934,35.3225225 11.5075488,35.2764865 L12.8177176,30.6772973 C11.6720693,29.8757658 11,28.6252252 11,27.2605405 C11,24.9114414 13.0188721,23 15.5006661,23 C17.98246,23 20,24.9114414 20,27.2605405 C20,28.6252252 19.3279307,29.8751351 18.1822824,30.6766667 L19.4937833,35.2764865 C19.5071048,35.3218919 19.5130995,35.3685586 19.5130995,35.4164865 C19.5137655,36.2905405 18.7630995,37 17.8419183,37 L17.8419183,37 Z M12.5116716,35.5422674 C12.5442136,35.7995425 12.7810089,36 13.0690406,36 L17.9344214,36 C18.2210682,36 18.4592483,35.8008193 18.4917903,35.5422674 L17.0419387,30.5933926 C16.9733927,30.3590999 17.0820969,30.1114008 17.3071217,29.9875512 C18.3671612,29.396393 19,28.3641007 19,27.2277491 C19,25.448529 17.430366,24 15.5006924,24 C13.5703264,24 12,25.448529 12,27.2277491 C12,28.3641007 12.6328388,29.396393 13.6928783,29.9875512 C13.9179031,30.1126776 14.0252226,30.3603767 13.9580613,30.5933926 L12.5116716,35.5422674 L12.5116716,35.5422674 Z" id="Shape"></path>
                    <path d="M24.4683548,14 C24.1733512,14 23.93421,13.7649703 23.93421,13.4750386 L23.93421,9.26794448 C23.93421,4.73637365 20.1826429,1.04930601 15.5730547,1.04930601 L14.429445,1.04930601 C9.81860141,1.04930601 6.06828964,4.73637365 6.06828964,9.26794448 L6.06828964,13.4750386 C6.06828964,13.7649703 5.82914842,14 5.53414482,14 C5.23914122,14 5,13.7649703 5,13.4750386 L5,9.26794448 C5,4.157744 9.22922187,-7.70494779e-14 14.4281896,-7.70494779e-14 L15.5717993,-7.70494779e-14 C20.7707671,-7.70494779e-14 24.999989,4.157744 24.999989,9.26794448 L24.999989,13.4750386 C25.001872,13.7649703 24.7627307,14 24.4683548,14 L24.4683548,14 Z" id="Shape"></path>
                </g>
            </g>
        </g>
    </g>
</svg>