<?xml version="1.0" encoding="UTF-8" standalone="no"?>
<svg width="47px" height="56px" viewBox="0 0 47 56" version="1.1" xmlns="http://www.w3.org/2000/svg" xmlns:xlink="http://www.w3.org/1999/xlink">
    <!-- Generator: Sketch 40.1 (33804) - http://www.bohemiancoding.com/sketch -->
    <title>noun_615991_cc (1)</title>
    <desc>Created with Sketch.</desc>
    <defs></defs>
    <g id="Page-1" stroke="none" stroke-width="1" fill="none" fill-rule="evenodd">
        <g id="grow_landingpg" transform="translate(-1185.000000, -2487.000000)" fill="#F6A623">
            <g id="noun_615991_cc-(1)" transform="translate(1185.000000, 2487.000000)">
                <g id="Group">
                    <g>
                        <rect id="Rectangle-path" x="26.7061717" y="8.31075" width="11.0443899" height="3.619875"></rect>
                        <rect id="Rectangle-path" x="26.7061717" y="18.79675" width="11.0443899" height="3.619875"></rect>
                        <rect id="Rectangle-path" x="26.7061717" y="13.55375" width="11.0443899" height="3.619875"></rect>
                        <path d="M15.7027839,15.66775 L15.7027839,7.66325 C11.2954966,7.66325 7.72220897,11.24725 7.72220897,15.66775 C7.72220897,20.08825 11.2954966,23.67225 15.7027839,23.67225 C20.1100712,23.67225 23.6833588,20.08825 23.6833588,15.66775 L15.7027839,15.66775 L15.7027839,15.66775 Z M15.7027839,21.921375 C12.2647159,21.921375 9.4669783,19.116125 9.4669783,15.666875 C9.4669783,12.82575 11.3661597,10.420375 13.9580146,9.66175 L13.9580146,15.666875 L13.9580146,17.416875 L15.7027839,17.416875 L21.6899598,17.416875 C20.9336023,20.0165 18.5354169,21.921375 15.7027839,21.921375 L15.7027839,21.921375 Z" id="Shape"></path>
                        <path d="M17.1963064,6.841625 L17.1963064,14.202125 L24.5356786,14.202125 C24.5356786,10.13775 21.2494056,6.841625 17.1963064,6.841625 L17.1963064,6.841625 Z" id="Shape"></path>
                        <path d="M17.0471287,29.355375 L15.69406,28.17675 L14.5555981,29.5645 L11.8084587,32.913125 L11.5066136,32.619125 L10.221591,31.36525 L9.00723158,32.687375 L7.91238882,33.879125 L6.76171345,35.132125 L7.97956244,36.3195 L10.8636661,39.132625 L12.2228415,40.45825 L13.4276047,38.99 L18.4673709,32.8475 L19.5465107,31.5315 L18.2641053,30.414125 L17.0471287,29.355375 L17.0471287,29.355375 Z M12.078898,37.87875 L9.19479428,35.065625 L10.289637,33.873875 L11.9506574,35.494375 L15.90256,30.6775 L17.1186642,31.737125 L12.078898,37.87875 L12.078898,37.87875 Z" id="Shape"></path>
                        <path d="M17.0471287,40.476625 L15.69406,39.298 L14.5555981,40.68575 L11.8084587,44.034375 L11.5066136,43.740375 L10.221591,42.4865 L9.00723158,43.808625 L7.91238882,45.000375 L6.76171345,46.253375 L7.97956244,47.44075 L10.8636661,50.253875 L12.2228415,51.5795 L13.4276047,50.11125 L18.4673709,43.96875 L19.5465107,42.65275 L18.2641053,41.535375 L17.0471287,40.476625 L17.0471287,40.476625 Z M12.078898,49 L9.19479428,46.186875 L10.289637,44.995125 L11.9506574,46.615625 L15.90256,41.79875 L17.1186642,42.858375 L12.078898,49 L12.078898,49 Z" id="Shape"></path>
                        <rect id="Rectangle-path" x="22.3817609" y="31.861375" width="16.0614741" height="1.75"></rect>
                        <rect id="Rectangle-path" x="22.3817609" y="34.930875" width="16.0614741" height="1.75"></rect>
                        <rect id="Rectangle-path" x="22.3817609" y="42.982625" width="16.0614741" height="1.75"></rect>
                        <rect id="Rectangle-path" x="22.3817609" y="46.052125" width="16.0614741" height="1.75"></rect>
                        <path d="M46.3287199,44.027375 L44.3658545,42.490875 L44.3658545,13.51 L46.3287199,11.9735 L46.3287199,0 L0.0923326836,0 L0.0923326836,11.972625 L2.05519818,13.509125 L2.05519818,42.489125 L0.0923326836,44.027375 L0.0923326836,56 L46.3287199,56 L46.3287199,44.027375 L46.3287199,44.027375 Z M44.5839506,54.25 L1.83710201,54.25 L1.83710201,44.881375 L3.1291037,43.869875 L3.79996751,43.344 L3.79996751,42.49 L3.79996751,13.51 L3.79996751,12.656 L3.1291037,12.130125 L1.83710201,11.118625 L1.83710201,1.75 L44.5839506,1.75 L44.5839506,11.118625 L43.2919489,12.130125 L42.6210851,12.656 L42.6210851,13.51 L42.6210851,42.49 L42.6210851,43.344 L43.2919489,43.869875 L44.5839506,44.881375 L44.5839506,54.25 L44.5839506,54.25 Z" id="Shape"></path>
                    </g>
                </g>
            </g>
        </g>
    </g>
</svg>