<?xml version="1.0" encoding="UTF-8" standalone="no"?>
<svg width="42px" height="32px" viewBox="0 0 42 32" version="1.1" xmlns="http://www.w3.org/2000/svg" xmlns:xlink="http://www.w3.org/1999/xlink">
    <!-- Generator: Sketch 40.1 (33804) - http://www.bohemiancoding.com/sketch -->
    <title>noun_497751_cc</title>
    <desc>Created with Sketch.</desc>
    <defs></defs>
    <g id="Page-1" stroke="none" stroke-width="1" fill="none" fill-rule="evenodd">
        <g id="grow_landingpg" transform="translate(-277.000000, -2499.000000)" fill="#F6A623">
            <g id="noun_497751_cc" transform="translate(277.000000, 2499.000000)">
                <g id="Group">
                    <g>
                        <path d="M37.5375,13.986755 L40.74,10.807947 C41.37,10.1721854 41.37,9.16556291 40.74,8.58278146 C40.11,7.94701987 39.1125,7.94701987 38.535,8.58278146 L35.2275,11.8145695 C35.2275,11.8145695 35.2275,11.8675497 35.175,11.8675497 C33.81,10.807947 32.2875,9.74834437 30.555,8.84768212 C30.6075,8.79470199 30.6075,8.74172185 30.66,8.68874172 L32.4975,4.34437086 C32.865,3.54966887 32.4975,2.59602649 31.6575,2.2781457 C30.87,1.90728477 29.925,2.2781457 29.61,3.12582781 L27.7725,7.47019868 C27.72,7.47019868 27.72,7.57615894 27.6675,7.62913907 C26.04,7.09933775 24.3075,6.72847682 22.47,6.56953642 C22.5225,6.46357616 22.5225,6.30463576 22.5225,6.1986755 L22.5225,1.58940397 C22.5225,0.688741722 21.84,9.89208715e-14 20.9475,9.89208715e-14 C20.055,9.89208715e-14 19.3725,0.688741722 19.3725,1.58940397 L19.3725,6.1986755 C19.3725,6.30463576 19.3725,6.46357616 19.425,6.56953642 C17.5875,6.72847682 15.855,7.09933775 14.28,7.62913907 C14.28,7.57615894 14.2275,7.47019868 14.2275,7.41721854 L12.39,3.07284768 C12.0225,2.2781457 11.13,1.90728477 10.3425,2.22516556 C9.555,2.59602649 9.1875,3.49668874 9.5025,4.29139073 L11.34,8.63576159 C11.34,8.68874172 11.3925,8.74172185 11.445,8.79470199 C9.7125,9.69536424 8.1375,10.7549669 6.7725,11.8145695 L6.72,11.7615894 L3.36,8.47682119 C2.73,7.8410596 1.7325,7.89403974 1.155,8.47682119 C0.525,9.11258278 0.5775,10.1192053 1.155,10.7019868 L4.41,13.9337748 C2.6775,15.6821192 1.47,17.2715232 0.84,18.2251656 L1.13686838e-13,19.4437086 L0.8925,20.6622517 C3.36,24.1059603 10.29,31.9470199 20.895,32 L20.9475,32 C32.13,32 39.2175,23.3642384 41.1075,20.7152318 L42,19.4966887 L41.16,18.2781457 C40.4775,17.3245033 39.27,15.7350993 37.5375,13.986755 L37.5375,13.986755 Z M20.4483333,28 C20.4483333,28 20.3966667,28 20.4483333,28 C12.905,28 7.58333333,22.8629283 5,19.6853583 C7.17,16.8255452 12.595,11.0529595 20.3966667,11 L20.5516667,11 C28.25,11 33.6233333,16.6137072 36,19.6853583 C33.6233333,22.5981308 28.1983333,28 20.4483333,28 L20.4483333,28 Z" id="Shape"></path>
                        <path d="M21,26 C24.3137085,26 27,23.3137085 27,20 C27,16.6862915 24.3137085,14 21,14 C17.6862915,14 15,16.6862915 15,20 C15,23.3137085 17.6862915,26 21,26 Z" id="Oval"></path>
                    </g>
                </g>
            </g>
        </g>
    </g>
</svg>