<?xml version="1.0" encoding="UTF-8" standalone="no"?>
<svg width="39px" height="45px" viewBox="0 0 39 45" version="1.1" xmlns="http://www.w3.org/2000/svg" xmlns:xlink="http://www.w3.org/1999/xlink">
    <!-- Generator: Sketch 40.1 (33804) - http://www.bohemiancoding.com/sketch -->
    <title>noun_11196_cc</title>
    <desc>Created with Sketch.</desc>
    <defs></defs>
    <g id="Page-1" stroke="none" stroke-width="1" fill="none" fill-rule="evenodd">
        <g id="grow_landingpg" transform="translate(-1188.000000, -2675.000000)" fill="#F6A623">
            <g id="noun_11196_cc" transform="translate(1188.000000, 2675.000000)">
                <g id="Group">
                    <path d="M37.2066182,12.5388 L38.4793838,11.25 C39.1735387,10.5471 39.1735387,9.4338 38.4793838,8.73045 L35.9334082,6.0939 C35.2392532,5.391 34.0815875,5.391 33.3874326,6.0939 L32.1724391,7.3827 C31.5356119,8.02755 31.4782842,9.0234 31.9986782,9.7263 L30.5521516,11.13255 C27.8324151,8.9064 24.4762957,7.4412 20.8308711,7.03125 L20.8308711,5.0391 C21.698787,4.92165 22.3351698,4.16025 22.3351698,3.2814 L22.3351698,1.8162 C22.3351698,0.82035 21.5254705,1.97120098e-13 20.5415658,1.97120098e-13 L16.8961411,1.97120098e-13 C15.970453,1.97120098e-13 15.1603093,0.82035 15.1603093,1.8162 L15.1603093,3.2814 C15.1603093,4.16025 15.7971365,4.9221 16.6650524,5.0391 L16.6650524,7.08975 C7.23263274,8.14455 -2.79831713e-13,16.1721 -2.79831713e-13,25.95735 C-2.79831713e-13,36.4455 8.39029838,45 18.8061783,45 C29.1642861,45 37.6119122,36.44505 37.6119122,25.95735 C37.6119122,21.50415 36.0493969,17.4024 33.5038657,14.121 L34.9503923,12.71475 C35.6441029,13.18365 36.6280075,13.12515 37.2066182,12.5388 L37.2066182,12.5388 Z M18.5002201,41 C10.4765273,41 4,34.3001442 4,26.0002277 C4,17.6998558 10.4760871,11 18.5002201,11 C26.524353,11 33,17.6998558 33,26.0002277 C33.0004402,34.3001442 26.524353,41 18.5002201,41 L18.5002201,41 Z" id="Shape"></path>
                    <path d="M9,25.9997979 C9,26.526369 8.52627324,27 8,27 C7.47372676,27 7,26.526369 7,25.9997979 C7,25.473631 7.47372676,25 8,25 C8.52627324,25 9,25.473631 9,25.9997979 L9,25.9997979 Z" id="Shape"></path>
                    <path d="M10,17.9997979 C10,17.473631 10.4737268,17 11,17 C11.5262732,17 12,17.473631 12,17.9997979 C12,18.526369 11.5262732,19 11,19 C10.4737268,19 10,18.526369 10,17.9997979 L10,17.9997979 Z" id="Shape"></path>
                    <path d="M10,33.9997979 C10,33.473631 10.473631,33 10.9997979,33 C11.526369,33 12,33.473631 12,33.9997979 C12,34.526369 11.526369,35 10.9997979,35 C10.473631,34.9995959 10,34.5259648 10,33.9997979 L10,33.9997979 Z" id="Shape"></path>
                    <path d="M20.504167,22.4963503 L21.287159,22.79505 L28.217008,17 L29,17.776344 L23.2756439,24.8258411 C23.6976821,25.7219403 23.818,26.7974428 23.5769014,27.8132972 C22.9137646,30.0835987 20.5638632,31.4573421 18.2139618,30.8604015 C15.9246821,30.202895 14.5387123,27.8729454 15.1407646,25.5429957 C15.8043642,23.2736119 18.1542656,21.8994097 20.504167,22.4963503 L20.504167,22.4963503 Z" id="Shape"></path>
                    <path d="M19,14 C19.5262732,14 20,14.473631 20,14.9997979 C20,15.526369 19.5262732,16 19,16 C18.4737268,16 18,15.526369 18,14.9997979 C18,14.473631 18.4737268,14 19,14 Z" id="Shape"></path>
                    <path d="M18,37 C18,36.4737268 18.4737268,36 19,36 C19.5262732,36 20,36.4737268 20,37 C20,37.5262732 19.5262732,38 19,38 C18.4737268,38 18,37.525869 18,37 L18,37 Z" id="Shape"></path>
                    <path d="M26,34 C26,33.4737268 26.4737268,33 27,33 C27.5262732,33 28,33.4737268 28,34 C28,34.5262732 27.5262732,35 27,35 C26.4737268,35 26,34.525869 26,34 L26,34 Z" id="Shape"></path>
                    <path d="M29,26.0002021 C29,25.473631 29.473631,25 29.9997979,25 C30.526369,25 31,25.473631 31,26.0002021 C31,26.526369 30.526369,27 29.9997979,27 C29.473631,27 29,26.526369 29,26.0002021 L29,26.0002021 Z" id="Shape"></path>
                </g>
            </g>
        </g>
    </g>
</svg>