<?xml version="1.0" encoding="UTF-8" standalone="no"?>
<svg width="49px" height="43px" viewBox="0 0 49 43" version="1.1" xmlns="http://www.w3.org/2000/svg" xmlns:xlink="http://www.w3.org/1999/xlink">
    <!-- Generator: Sketch 40.1 (33804) - http://www.bohemiancoding.com/sketch -->
    <title>noun_537143_cc</title>
    <desc>Created with Sketch.</desc>
    <defs></defs>
    <g id="Page-1" stroke="none" stroke-width="1" fill="none" fill-rule="evenodd">
        <g id="grow_landingpg" transform="translate(-1111.000000, -2076.000000)" fill="#F6A623">
            <g id="noun_537143_cc" transform="translate(1111.000000, 2076.000000)">
                <g id="Group">
                    <g id="Group-2">
                        <g>
                            <path d="M37,13 C37,13.553 37.447,14 38,14 C38.553,14 39,13.553 39,13 C39,8.037 34.963,4 30,4 C29.447,4 29,4.447 29,5 C29,5.553 29.447,6 30,6 C33.859,6 37,9.141 37,13 L37,13 Z" id="Shape"></path>
                            <path d="M42.8719375,13.0484524 C42.7331042,5.82957143 36.8347292,0 29.6041667,0 C25.088,0 20.8637917,2.33838095 18.4321667,6.14285714 L18.375,6.14285714 C13.2881875,6.14285714 8.84347917,9.6002619 7.53477083,14.4654048 C2.73379167,15.1718333 0,18.4459762 0,23.547619 C0,29.2318095 3.51983333,32.7619048 9.1875,32.7619048 C9.75202083,32.7619048 10.2083333,32.3042619 10.2083333,31.7380952 C10.2083333,31.1719286 9.75202083,30.7142857 9.1875,30.7142857 C4.64683333,30.7142857 2.04166667,28.1015238 2.04166667,23.547619 C2.04166667,19.2578571 4.2599375,16.7915 8.4555625,16.4178095 C8.90677083,16.377881 9.27835417,16.044119 9.36614583,15.5977381 C10.2185417,11.3059286 14.0068542,8.19047619 18.375,8.19047619 C18.503625,8.19047619 18.6281667,8.19969048 18.7537292,8.20890476 L18.8925625,8.21811905 C20.7025,8.39830952 22.6635208,9.10985714 23.8875,10.0333333 C24.07125,10.1715476 24.2866458,10.2380952 24.5,10.2380952 C24.8103333,10.2380952 25.1165833,10.0968095 25.3176875,9.82959524 C25.6555833,9.37809524 25.5647292,8.73616667 25.1145417,8.3962619 C23.9640625,7.52909524 22.3674792,6.83392857 20.7127083,6.45102381 C22.8248125,3.70414286 26.110875,2.04761905 29.6041667,2.04761905 C35.7955208,2.04761905 40.8333333,7.10011905 40.8333333,13.3095238 C40.8333333,13.4241905 40.8190417,13.5378333 40.8149583,13.6525 L40.8098542,13.7313333 L40.8098542,13.7344048 C40.6945,16.7792143 39.3612917,19.6643095 37.0889167,21.7047619 C36.6693542,22.0815238 36.633625,22.7285714 37.0092917,23.150381 C37.2103958,23.3766429 37.4901042,23.4913095 37.7698125,23.4913095 C38.01175,23.4913095 38.25675,23.4053095 38.4507083,23.2302381 C40.786375,21.1334762 42.2778125,18.280119 42.7208542,15.2066429 C45.600625,16.5027857 46.9583333,18.8555 46.9583333,22.5238095 C46.9583333,27.5763095 43.8294792,30.7142857 38.7916667,30.7142857 L35.7291667,30.7142857 C35.7107917,30.7142857 35.6954792,30.7235 35.678125,30.7245238 C35.1646458,24.988119 30.3503958,20.4761905 24.5,20.4761905 C18.3086458,20.4761905 13.2708333,25.5286905 13.2708333,31.7380952 C13.2708333,37.9475 18.3086458,43 24.5,43 C30.3503958,43 35.1646458,38.4880714 35.678125,32.7516667 C35.6954792,32.7526905 35.7107917,32.7619048 35.7291667,32.7619048 L38.7916667,32.7619048 C44.9932292,32.7619048 49,28.7434524 49,22.5238095 C49,17.7702619 46.9389375,14.5862143 42.8719375,13.0484524 L42.8719375,13.0484524 Z M24,41 C19.037,41 15,36.963 15,32 C15,27.037 19.037,23 24,23 C28.963,23 33,27.037 33,32 C33,36.963 28.963,41 24,41 L24,41 Z" id="Shape"></path>
                            <path d="M24.799916,26.3786943 C24.4229556,25.8737686 23.5770444,25.8737686 23.200084,26.3786943 L20.2003992,30.3860411 C19.9724231,30.6895976 19.9364269,31.0953415 20.1054092,31.4349641 C20.2753913,31.7745867 20.621355,31.9889798 21.0003151,31.9889798 L22.0002101,31.9889798 C22.5521521,31.9889798 23.000105,32.4378026 23.000105,32.9908165 L23.000105,36.9981633 C23.000105,37.552179 23.4470581,38 24,38 C24.5529419,38 24.999895,37.552179 24.999895,36.9981633 L24.999895,32.9908165 C24.999895,32.4378026 25.4478479,31.9889798 25.9997899,31.9889798 L26.9996849,31.9889798 C27.378645,31.9889798 27.7246087,31.7745867 27.8945908,31.4349641 C28.0635731,31.0953415 28.0275769,30.6895976 27.7996008,30.3860411 L24.799916,26.3786943 L24.799916,26.3786943 Z M24,31 C23.7144152,30.7313006 23.37534,30.5245355 23,30.400667 L24,29 L25,30.400667 C24.62466,30.5245355 24.2855848,30.7313006 24,31 L24,31 Z" id="Shape"></path>
                        </g>
                    </g>
                </g>
            </g>
        </g>
    </g>
</svg>